<?xml version="1.0" standalone="no"?>
<!DOCTYPE svg PUBLIC "-//W3C//DTD SVG 20010904//EN"
 "http://www.w3.org/TR/2001/REC-SVG-20010904/DTD/svg10.dtd">
<svg version="1.0" xmlns="http://www.w3.org/2000/svg"
 width="600.000000pt" height="480.000000pt" viewBox="0 0 600.000000 480.000000"
 preserveAspectRatio="xMidYMid meet">

<g transform="translate(0.000000,480.000000) scale(0.100000,-0.100000)"
fill="#000000" stroke="none">
<path d="M2251 2853 c1 -203 5 -531 8 -730 l6 -361 140 84 c77 46 143 85 147
86 5 2 102 412 111 473 1 6 -58 12 -154 15 l-156 5 64 235 c106 393 123 459
117 474 -7 18 -72 15 -83 -3 -11 -17 -48 -8 -78 21 -33 29 -96 68 -112 68 -8
0 -11 -100 -10 -367z"/>
<path d="M2540 3195 c-11 -13 -10 -14 4 -9 9 3 16 10 16 15 0 13 -6 11 -20 -6z"/>
<path d="M2783 2891 c-4 -9 -30 -77 -60 -151 -29 -74 -53 -138 -53 -142 0 -4
69 -9 153 -10 l153 -3 -152 -290 c-83 -159 -150 -291 -149 -293 2 -2 119 65
261 148 143 84 300 176 349 204 50 29 122 70 160 91 39 21 72 40 74 42 9 7
-24 31 -94 68 -102 55 -220 122 -292 166 -35 22 -65 39 -68 39 -2 0 -45 25
-95 55 -50 30 -94 55 -99 55 -5 0 -14 6 -20 14 -18 22 -62 26 -68 7z"/>
<path d="M2500 1690 c0 -19 3 -21 12 -12 9 9 9 15 0 24 -9 9 -12 7 -12 -12z"/>
</g>
</svg>
